<?xml version="1.0" encoding="UTF-8" standalone="no"?>
<svg
   xmlns:dc="http://purl.org/dc/elements/1.1/"
   xmlns:cc="http://creativecommons.org/ns#"
   xmlns:rdf="http://www.w3.org/1999/02/22-rdf-syntax-ns#"
   xmlns:svg="http://www.w3.org/2000/svg"
   xmlns="http://www.w3.org/2000/svg"
   xmlns:sodipodi="http://sodipodi.sourceforge.net/DTD/sodipodi-0.dtd"
   xmlns:inkscape="http://www.inkscape.org/namespaces/inkscape"
   version="1.1"
   x="0px"
   y="0px"
   viewBox="0 0 100 100"
   enable-background="new 0 0 66 66"
   xml:space="preserve"
   id="svg52"
   sodipodi:docname="noun_shopping list_1856023.svg"
   width="100"
   height="100"
   inkscape:version="0.92.1 r15371"><metadata
     id="metadata58"><rdf:RDF><cc:Work
         rdf:about=""><dc:format>image/svg+xml</dc:format><dc:type
           rdf:resource="http://purl.org/dc/dcmitype/StillImage" /><dc:title></dc:title></cc:Work></rdf:RDF></metadata><defs
     id="defs56" /><sodipodi:namedview
     pagecolor="#ffffff"
     bordercolor="#666666"
     borderopacity="1"
     objecttolerance="10"
     gridtolerance="10"
     guidetolerance="10"
     inkscape:pageopacity="0"
     inkscape:pageshadow="2"
     inkscape:window-width="1920"
     inkscape:window-height="1048"
     id="namedview54"
     showgrid="false"
     inkscape:zoom="2.8606061"
     inkscape:cx="33.699153"
     inkscape:cy="41.25"
     inkscape:window-x="0"
     inkscape:window-y="16"
     inkscape:window-maximized="1"
     inkscape:current-layer="svg52" /><g
     id="g46"
     transform="matrix(1.5190978,0,0,1.5190978,-0.16952152,0.14409778)"><g
       id="g4"><path
         d="m 13.845,13.037 c -2.624,0 -4.758,2.134 -4.758,4.758 0,2.624 2.134,4.758 4.758,4.758 2.624,0 4.758,-2.134 4.758,-4.758 0,-2.624 -2.134,-4.758 -4.758,-4.758 z m 0,8.015 c -1.796,0 -3.258,-1.461 -3.258,-3.258 0,-1.797 1.461,-3.258 3.258,-3.258 1.797,0 3.258,1.461 3.258,3.258 0,1.797 -1.461,3.258 -3.258,3.258 z"
         id="path2"
         inkscape:connector-curvature="0" /></g><g
       id="g8"><path
         d="m 21.455,15.788 h 19.383 c 0.414,0 0.75,-0.336 0.75,-0.75 0,-0.414 -0.336,-0.75 -0.75,-0.75 H 21.455 c -0.414,0 -0.75,0.336 -0.75,0.75 0,0.414 0.336,0.75 0.75,0.75 z"
         id="path6"
         inkscape:connector-curvature="0" /></g><g
       id="g12"><path
         d="m 21.455,20.493 h 9.691 c 0.414,0 0.75,-0.336 0.75,-0.75 0,-0.414 -0.336,-0.75 -0.75,-0.75 h -9.691 c -0.414,0 -0.75,0.336 -0.75,0.75 0,0.414 0.336,0.75 0.75,0.75 z"
         id="path10"
         inkscape:connector-curvature="0" /></g><g
       id="g16"><path
         d="m 21.455,26.599 h 19.383 c 0.414,0 0.75,-0.336 0.75,-0.75 0,-0.414 -0.336,-0.75 -0.75,-0.75 H 21.455 c -0.414,0 -0.75,0.336 -0.75,0.75 0,0.414 0.336,0.75 0.75,0.75 z"
         id="path14"
         inkscape:connector-curvature="0" /></g><g
       id="g20"><path
         d="m 21.455,31.304 h 9.691 c 0.414,0 0.75,-0.336 0.75,-0.75 0,-0.414 -0.336,-0.75 -0.75,-0.75 h -9.691 c -0.414,0 -0.75,0.336 -0.75,0.75 0,0.414 0.336,0.75 0.75,0.75 z"
         id="path18"
         inkscape:connector-curvature="0" /></g><g
       id="g24"><path
         d="m 21.455,42.115 h 9.691 c 0.414,0 0.75,-0.336 0.75,-0.75 0,-0.414 -0.336,-0.75 -0.75,-0.75 h -9.691 c -0.414,0 -0.75,0.336 -0.75,0.75 0,0.414 0.336,0.75 0.75,0.75 z"
         id="path22"
         inkscape:connector-curvature="0" /></g><g
       id="g28"><path
         d="m 16.436,25.593 -3.626,3.626 -1.073,-1.073 c -0.293,-0.293 -0.768,-0.293 -1.061,0 -0.293,0.293 -0.293,0.768 0,1.061 l 1.603,1.603 c 0.293,0.293 0.768,0.293 1.061,0 l 4.157,-4.157 c 0.293,-0.293 0.293,-0.768 0,-1.06 -0.293,-0.293 -0.768,-0.293 -1.061,0 z"
         id="path26"
         inkscape:connector-curvature="0" /></g><g
       id="g32"><path
         d="m 15.063,16.002 -1.993,1.993 -0.442,-0.442 c -0.293,-0.293 -0.767,-0.293 -1.061,0 -0.293,0.293 -0.293,0.768 0,1.061 l 0.973,0.973 c 0.147,0.147 0.338,0.22 0.53,0.22 0.192,0 0.384,-0.073 0.53,-0.22 l 2.523,-2.523 c 0.293,-0.293 0.293,-0.768 0,-1.061 -0.292,-0.293 -0.767,-0.293 -1.06,-0.001 z"
         id="path30"
         inkscape:connector-curvature="0" /></g><g
       id="g36"><path
         d="m 16.195,36.404 -3.627,3.627 -1.073,-1.073 c -0.293,-0.293 -0.768,-0.293 -1.06,0 -0.293,0.292 -0.293,0.768 0,1.061 l 1.603,1.604 c 0.141,0.141 0.331,0.22 0.53,0.22 0.199,0 0.39,-0.079 0.53,-0.22 l 4.157,-4.157 c 0.293,-0.293 0.293,-0.768 0,-1.061 -0.292,-0.294 -0.767,-0.294 -1.06,-10e-4 z"
         id="path34"
         inkscape:connector-curvature="0" /></g><g
       id="g40"><path
         d="m 15.472,47.215 -3.627,3.627 -1.073,-1.073 c -0.293,-0.293 -0.768,-0.293 -1.061,0 -0.293,0.293 -0.293,0.768 0,1.061 l 1.603,1.603 c 0.146,0.147 0.338,0.22 0.53,0.22 0.192,0 0.384,-0.073 0.53,-0.22 l 4.157,-4.157 c 0.293,-0.293 0.293,-0.768 0,-1.061 -0.292,-0.293 -0.766,-0.293 -1.059,0 z"
         id="path38"
         inkscape:connector-curvature="0" /></g><g
       id="g44"><path
         d="m 61.519,18.913 2.666,-3.244 c 1.26,-1.534 1.035,-3.788 -0.493,-5.044 L 63,10.058 c -1.521,-1.251 -3.781,-1.044 -5.044,0.493 -3.407,4.145 -2.302,2.801 -5.746,6.991 V 7.12 c 0,-2.041 -1.655,-3.7 -3.69,-3.7 h -2.95 c -0.009,0 -0.016,0.005 -0.024,0.005 H 4.699 C 2.27,3.425 1,5.286 1,7.124 1,8.962 2.271,10.823 4.699,10.823 H 5.49 V 61.83 c 0,0.414 0.336,0.75 0.75,0.75 h 39.33 c 0.414,0 0.75,-0.336 0.75,-0.75 v -8.85 h 5.14 c 0.414,0 0.75,-0.336 0.75,-0.75 V 30.239 l 8.356,-10.167 2.221,1.826 -6.121,7.448 c -0.263,0.32 -0.217,0.793 0.104,1.056 0.32,0.263 0.793,0.216 1.056,-0.104 l 6.597,-8.027 c 0.263,-0.32 0.217,-0.792 -0.104,-1.056 z M 36.705,46.742 36.41,47.101 33.891,45.03 32.5,43.887 55.497,15.906 c 1.918,1.576 1.083,0.889 3.911,3.214 -4.929,5.996 12.184,-14.827 -22.703,27.622 z m -6.329,3.715 1.462,-5.168 3.324,2.734 z M 59.115,11.502 c 0.706,-0.858 2.07,-0.995 2.932,-0.286 l 0.692,0.568 c 0.89,0.731 1.018,2.043 0.287,2.932 L 60.36,17.96 C 58.442,16.384 59.278,17.071 56.449,14.746 Z M 50.71,7.12 v 12.241 l -4.39,5.344 V 10.823 h 2.195 c 0.007,0 0.013,0 0.02,0 0.986,0 0.995,-1.5 -0.01,-1.5 -0.003,-0.001 -0.007,0 -0.01,0 -1.496,0 -2.175,-1.071 -2.195,-2.15 V 7.074 c 0.02,-1.078 0.699,-2.15 2.195,-2.15 0.006,0 0.012,-0.003 0.018,-0.003 1.202,0.008 2.177,0.99 2.177,2.199 z M 2.5,7.124 C 2.5,6.029 3.18,4.925 4.699,4.925 H 45.488 C 44.573,6.247 44.622,8.069 45.486,9.32 -4.712,9.32 8.338,9.323 4.699,9.323 3.18,9.323 2.5,8.219 2.5,7.124 Z M 44.82,61.08 H 6.99 V 10.823 c 23.285,-0.001 15.231,-0.001 37.83,0 V 26.531 L 37.11,35.91 H 21.455 c -0.414,0 -0.75,0.336 -0.75,0.75 0,0.414 0.336,0.75 0.75,0.75 h 14.423 l -4.951,6.023 c -0.101,0.093 -0.181,0.205 -0.219,0.34 l -0.833,2.946 H 21.45 c -0.414,0 -0.75,0.336 -0.75,0.75 0,0.414 0.336,0.75 0.75,0.75 h 8 l -0.903,3.192 h -7.092 c -0.414,0 -0.75,0.336 -0.75,0.75 0,0.414 0.336,0.75 0.75,0.75 10.293,0 10.555,0.252 10.555,-0.75 0,-0.285 -0.165,-0.525 -0.399,-0.651 l 5.257,-2.674 c 0.128,-0.065 0.223,-0.169 0.294,-0.289 l 1.454,-1.769 6.204,-7.546 V 52.23 Z m 5.89,-9.6 H 46.32 V 37.409 l 4.39,-5.344 z"
         id="path42"
         inkscape:connector-curvature="0" /></g></g></svg>